<svg height="725" width="794" viewBox="108 199 794 725" style="background-color:transparent;" preserveAspectRatio="xMinYMin meet" xmlns:xlink="http://www.w3.org/1999/xlink" xmlns="http://www.w3.org/2000/svg"><g><g transform="matrix(1,0,0,1,178,721)"><path style="fill:rgb(153,153,153);stroke:rgb(127,127,127);stroke-width:3.0;" d="m 1.4812 25.6472v 80.8187c-0.9056 0 110.5032 25.4641 273.8885 23.2491c 163.3853-2.2148 248.7927-19.9271 248.7927-19.9271v-80.8187"/><path style="fill:rgb(153,153,153);stroke:rgb(127,127,127);stroke-width:3.0;" d="m 276.2603 1.2913c 318.1993 8.3713 356.4849 44.2853 0 46.4991c-356.4811 2.2160-378.7547-56.4615 0-46.4991z"/></g><text style="font-weight:bold; font-size: 12px; text-anchor: middle; font-family: arial,helvetica; fill: #333333;" y="790" x="443">(mongodb)</text><text style="font-weight:bold; font-size: 12px; text-anchor: middle; font-family: arial,helvetica; fill: #333333;" y="807" x="443">Przepisywanie informacji o lokalizacji ze starego obrazka do przetworzonego obrazka</text></g><g><g transform="matrix(1,0,0,1,127,346)"><path style="fill:none;stroke:#333333;stroke-width:3.0;" d="m 7.4669-0.178l 37.5573-1.9572c 4.0326-0.2102 7.3371 3.251 7.2890 7.289l-1.0676 89.5144c-0.0482 4.038-3.2610 7.5752-7.2890 7.289l-37.5573-2.669c-4.0279-0.2862-7.3398-3.2514-7.2890-7.289l 1.0676-84.8882c 0.0508-4.0378 3.2564-7.0788 7.2890-7.289z"/><path style="fill:none;stroke:#333333;stroke-width:3.0;" d="m 4.6647 6.046l 41.3823-1.9572l 0 13.3978l-42.0940-0.7118z"/><path style="fill:none;stroke:#333333;stroke-width:3.0;" d="m 3.9530 20.5976l 42.0940-0.7118l 0.8897 11.2628l-43.6955-0.178z"/><path style="fill:none;stroke:#333333;stroke-width:3.0;" d="m 2.8854 34.2594l 44.0513 0.3558l-0.7117 10.0174l-42.2720 0.8896z"/><path style="fill:none;stroke:#333333;stroke-width:3.0;" d="m 29.4475 58.4678c 0 2.6873-0.7271 5.7555-3.3799 5.7555c-2.6529 0-5.8710-0.2212-5.8710-2.9085c 0-2.6873 0.3712-5.9334 3.0241-5.9334c 2.6529 0 6.2269 0.3991 6.2269 3.0864z"/></g></g><g><path style="fill:none;stroke:#333333;stroke-width:2;" d="M 179 396C 256 396 256 380 333 380"/><polyline style="fill:#ffffff;stroke:#333333;stroke-width:2;fill-opacity:0;" points="315,390 333,380 315,370"/><text style="font-weight:Normal; font-size: 12px; text-anchor: middle; font-family: arial,helvetica; fill: #333333;" y="367" x="318"/><text style="font-weight:Normal; font-size: 12px; text-anchor: start; font-family: arial,helvetica; fill: #333333;" y="388" x="256"/><text style="font-weight:Normal; font-size: 12px; text-anchor: middle; font-family: arial,helvetica; fill: #333333;" y="380" x="190"/></g><g><g transform="matrix(1,0,0,1,787,778)"><path style="fill:none;stroke:#333333;stroke-width:3.0;" d="m 1.9953 4.3538l 96.1687-3.1536l 1.9033 60.9686l-99.0252 1.5648z"/><path style="fill:none;stroke:#333333;stroke-width:3.0;" d="m 59.7729 66.9026c 0.5476 6.134 0.9006 10.474 6.3935 12.425l-31.1910 0.5404c 3.8362-5.7416 5.7866-7.9496 5.1623-12.2892z"/></g><text style="font-weight:bold; font-size: 12px; text-anchor: middle; font-family: arial,helvetica; fill: #333333;" y="873" x="837">edytorFOTEK 1.0</text><text style="font-weight:bold; font-size: 12px; text-anchor: middle; font-family: arial,helvetica; fill: #333333;" y="890" x="837"/></g><g><path style="fill:none;stroke:#333333;stroke-width:2;" d="M 710 803C 746.5 803 746.5 827 783 827"/><polyline style="fill:#ffffff;stroke:#333333;stroke-width:2;fill-opacity:0;" points="765,836 783,827 766,816"/><text style="font-weight:Normal; font-size: 12px; text-anchor: middle; font-family: arial,helvetica; fill: #333333;" y="808" x="773"/><text style="font-weight:Normal; font-size: 12px; text-anchor: start; font-family: arial,helvetica; fill: #333333;" y="815" x="746"/><text style="font-weight:Normal; font-size: 12px; text-anchor: middle; font-family: arial,helvetica; fill: #333333;" y="792" x="727"/></g><g><g transform="matrix(1,0,0,1,337,350)"><path style="fill:none;stroke:#333333;stroke-width:3.0;" d="m 301.8843-0.654l-290.5856-0.0396c-7.2158 0-11.2795 1.1422-11.2795 3.1701c 0.8763 16.0135-2.7248 34.7829-2.3270 55.1710c-0.2500 2.0266 2.9003 3.9874 10.1160 3.9874l 289.8042-1.4714c 7.2157 0 7.2072-0.4881 7.2072-2.5159l 3.6902-55.9493c 0-2.0278 0.5903-2.3523-6.6254-2.3523z"/></g><text style="font-weight:bold; font-size: 12px; text-anchor: middle; font-family: arial,helvetica; fill: #333333;" y="374" x="489">Odczytywanie danych  z wiadomości przesłanej</text><text style="font-weight:bold; font-size: 12px; text-anchor: middle; font-family: arial,helvetica; fill: #333333;" y="391" x="489">do modułu przetwarzania</text><line style="stroke:#333333;stroke-width:2;stroke-dasharray:8,2;" y2="454" x2="489" y1="410" x1="489"/></g><g><g transform="matrix(1,0,0,1,411,464)"><path style="fill:none;stroke:#333333;stroke-width:3.0;" d="m 155.3962-0.4142l-149.5801-0.0251c-3.7143 0-5.8062 0.7234-5.8062 2.0077c 0.4511 10.1419-1.4026 22.0291-1.1979 34.9417c-0.1287 1.2835 1.4929 2.5254 5.2073 2.5254l 149.1779-0.9319c 3.7143 0 3.7099-0.3091 3.7099-1.5934l 1.8995-35.4346c 0-1.2843 0.3039-1.4898-3.4105-1.4898z"/></g><text style="font-weight:bold; font-size: 12px; text-anchor: middle; font-family: arial,helvetica; fill: #333333;" y="488" x="489">Pobieranie obrazka</text><line style="stroke:#333333;stroke-width:2;stroke-dasharray:8,2;" y2="544" x2="489" y1="502" x1="489"/></g><g><g transform="matrix(1,0,0,1,331,545)"><path style="fill:none;stroke:#333333;stroke-width:3.0;" d="m 312.7719-0.4142l-301.0657-0.0251c-7.4760 0-11.6863 0.7234-11.6863 2.0077c 0.9079 10.1419-2.8231 22.0291-2.4110 34.9417c-0.2590 1.2835 3.0049 2.5254 10.4808 2.5254l 300.2562-0.9319c 7.4760 0 7.4671-0.3091 7.4671-1.5934l 3.8233-35.4346c 0-1.2843 0.6116-1.4898-6.8644-1.4898z"/></g><text style="font-weight:bold; font-size: 12px; text-anchor: middle; font-family: arial,helvetica; fill: #333333;" y="569" x="489">Edycja obrazka z uwzględnieniem intensywności</text><line style="stroke:#333333;stroke-width:2;stroke-dasharray:8,2;" y2="631" x2="489" y1="583" x1="489"/></g><g><g transform="matrix(1,0,0,1,350,637)"><path style="fill:none;stroke:#333333;stroke-width:3.0;" d="m 275.1601-0.4142l-264.8616-0.0251c-6.5770 0-10.2810 0.7234-10.2810 2.0077c 0.7987 10.1419-2.4836 22.0291-2.1210 34.9417c-0.2278 1.2835 2.6435 2.5254 9.2205 2.5254l 264.1494-0.9319c 6.5770 0 6.5692-0.3091 6.5692-1.5934l 3.3635-35.4346c 0-1.2843 0.5381-1.4898-6.0389-1.4898z"/></g><text style="font-weight:bold; font-size: 12px; text-anchor: middle; font-family: arial,helvetica; fill: #333333;" y="661" x="489">Tworzenie i zapisywanie nowego obrazka</text><line style="stroke:#333333;stroke-width:2;stroke-dasharray:8,2;" y2="719" x2="489" y1="675" x1="489"/></g><g><g transform="matrix(1,0,0,1,123,209)"><path style="fill:rgb(0,102,255);stroke:rgb(0,91,229);stroke-width:3.0;" d="m 738.5579 61.6184c 0 10.1284-31.9124 18.3375-71.2854 18.3375l-595.7659 0c-39.3731 0-71.2854-8.2092-71.2854-18.3375l 0-37.9868c 0-10.1284 31.9124-18.3375 71.2854-18.3375l 605.9472-5.2391c 39.3772 0 71.2896 10.8293 71.2896 20.9577l-10.1854 40.6058z"/></g><text style="font-weight:bold; font-size: 12px; text-anchor: middle; font-family: arial,helvetica; fill: #ffffff;" y="253" x="497">Schemat działania modułu przetwarania</text></g><text style="font-weight:Normal; font-size: 16px; text-anchor: end; font-family: Arial; fill: #ccc;" y="909" x="887">http://sketchboard.io</text></svg>